HIERARCHY
ROOT joint_0
{
	OFFSET 0.000000 0.000000 0.000000
	CHANNELS 6 Xposition Yposition Zposition Zrotation Yrotation Xrotation 
	JOINT joint_1
	{
		OFFSET 4.520508 -1.939880 86.268921
		CHANNELS 3 Zrotation Yrotation Xrotation
		JOINT joint_2
		{
			OFFSET -4.459717 -0.438538 78.934082
			CHANNELS 3 Zrotation Yrotation Xrotation
			JOINT joint_3
			{
				OFFSET -5.197754 -0.781128 78.796997
				CHANNELS 3 Zrotation Yrotation Xrotation
				JOINT joint_4
				{
					OFFSET 2.952026 -3.710571 109.812988
					CHANNELS 3 Zrotation Yrotation Xrotation
					JOINT joint_5
					{
						OFFSET 24.716797 -5.488037 87.903931
						CHANNELS 3 Zrotation Yrotation Xrotation
						End Site
						{
							OFFSET 0.000000 0.000000 0.000000
						}
					}
				}
				JOINT joint_6
				{
					OFFSET -3.154419 -25.484680 60.934937
					CHANNELS 3 Zrotation Yrotation Xrotation
					JOINT joint_7
					{
						OFFSET -28.997192 -144.472229 -32.671997
						CHANNELS 3 Zrotation Yrotation Xrotation
						JOINT joint_8
						{
							OFFSET 19.867676 -18.614380 -249.897949
							CHANNELS 3 Zrotation Yrotation Xrotation
							JOINT joint_9
							{
								OFFSET 5.281982 -13.816650 -264.993042
								CHANNELS 3 Zrotation Yrotation Xrotation
								End Site
								{
									OFFSET 0.000000 0.000000 0.000000
								}
							}
						}
					}
				}
				JOINT joint_10
				{
					OFFSET 6.494995 21.336792 62.257935
					CHANNELS 3 Zrotation Yrotation Xrotation
					JOINT joint_11
					{
						OFFSET 31.106567 145.200745 -27.007935
						CHANNELS 3 Zrotation Yrotation Xrotation
						JOINT joint_12
						{
							OFFSET 29.119141 24.684326 -248.460083
							CHANNELS 3 Zrotation Yrotation Xrotation
							JOINT joint_13
							{
								OFFSET 21.220093 31.248413 -262.703979
								CHANNELS 3 Zrotation Yrotation Xrotation
								End Site
								{
									OFFSET 0.000000 0.000000 0.000000
								}
							}
						}
					}
				}
			}
		}
	}
	JOINT joint_14
	{
		OFFSET -15.458496 -88.861694 -109.593018
		CHANNELS 3 Zrotation Yrotation Xrotation
		JOINT joint_15
		{
			OFFSET -6.193359 6.837952 -506.710999
			CHANNELS 3 Zrotation Yrotation Xrotation
			JOINT joint_16
			{
				OFFSET -35.096680 13.289795 -435.677025
				CHANNELS 3 Zrotation Yrotation Xrotation
				JOINT joint_17
				{
					OFFSET 158.491211 -33.916565 -71.771002
					CHANNELS 3 Zrotation Yrotation Xrotation
					End Site
					{
						OFFSET 0.000000 0.000000 0.000000
					}
				}
			}
		}
	}
	JOINT joint_18
	{
		OFFSET 23.116943 86.574158 -110.082031
		CHANNELS 3 Zrotation Yrotation Xrotation
		JOINT joint_19
		{
			OFFSET -6.125854 -0.283569 -506.757019
			CHANNELS 3 Zrotation Yrotation Xrotation
			JOINT joint_20
			{
				OFFSET -63.240234 11.589966 -432.537994
				CHANNELS 3 Zrotation Yrotation Xrotation
				JOINT joint_21
				{
					OFFSET 156.074219 -41.487305 -73.077999
					CHANNELS 3 Zrotation Yrotation Xrotation
					End Site
					{
						OFFSET 0.000000 0.000000 0.000000
					}
				}
			}
		}
	}
}
MOTION
Frames: 9
Frame Time: 0.016667
-247.014862 946.420471 1140.590942 15.152351 -0.538308 -0.153976 -0.311539 0.014562 -0.558197 -0.272388 -0.002269 0.116601 -0.283497 0.011902 -0.063665 -0.328554 0.024645 1.166876 0.000000 0.000000 0.000000 0.059493 0.232504 0.108437 -0.083310 0.384575 -0.474311 0.012763 -0.098030 0.373751 0.000000 0.000000 0.000000 0.698284 0.291825 0.190544 0.043230 0.171578 0.196989 0.129439 0.657174 0.468179 0.000000 0.000000 0.000000 -0.099818 0.574155 -0.528553 -0.117907 -0.395854 -0.195433 -0.113264 0.483242 0.052037 0.000000 0.000000 0.000000 0.456246 0.262692 0.119290 0.456730 0.227286 0.211856 0.448802 0.054887 0.225425 0.000000 0.000000 0.000000 
-246.984467 946.403748 1140.594971 15.154923 -0.524645 -0.151665 -0.312506 0.039862 -0.549919 -0.274272 -0.006933 0.113405 -0.284901 0.016121 -0.060689 -0.328457 0.014934 1.164439 0.000000 0.000000 0.000000 0.061152 0.220724 0.115778 -0.083620 0.375959 -0.480647 0.012989 -0.100599 0.376653 0.000000 0.000000 0.000000 0.699620 0.273049 0.184024 0.039235 0.155621 0.173439 0.126770 0.641914 0.460650 0.000000 0.000000 0.000000 -0.100565 0.561159 -0.528512 -0.118415 -0.396872 -0.197550 -0.113886 0.483813 0.051876 0.000000 0.000000 0.000000 0.454723 0.252195 0.118586 0.455153 0.219946 0.210841 0.447367 0.057660 0.225485 0.000000 0.000000 0.000000 
-246.942459 946.385498 1140.599976 15.154923 -0.509461 -0.148981 -0.311665 0.057777 -0.546240 -0.273913 -0.008996 0.111549 -0.284277 0.018767 -0.059085 -0.328851 0.007985 1.164295 0.000000 0.000000 0.000000 0.059446 0.213050 0.122259 -0.083535 0.369323 -0.481419 0.012985 -0.100069 0.379210 0.000000 0.000000 0.000000 0.697445 0.256900 0.177065 0.035841 0.142026 0.154131 0.123796 0.624967 0.452207 0.000000 0.000000 0.000000 -0.100631 0.548450 -0.528787 -0.118294 -0.401175 -0.199324 -0.113774 0.485124 0.052207 0.000000 0.000000 0.000000 0.454226 0.242295 0.118336 0.454632 0.209664 0.208440 0.446806 0.061204 0.226161 0.000000 0.000000 0.000000 
-246.875809 946.362488 1140.605957 15.150467 -0.491325 -0.145377 -0.309451 0.064153 -0.553394 -0.271155 -0.009695 0.114485 -0.281783 0.019412 -0.060535 -0.329799 0.008435 1.167646 0.000000 0.000000 0.000000 0.056656 0.211607 0.127859 -0.082644 0.366212 -0.471612 0.012464 -0.092686 0.380421 0.000000 0.000000 0.000000 0.694896 0.245855 0.169779 0.033622 0.131949 0.143014 0.120236 0.605675 0.440521 0.000000 0.000000 0.000000 -0.099281 0.535872 -0.529674 -0.116834 -0.410671 -0.200825 -0.112193 0.487189 0.053366 0.000000 0.000000 0.000000 0.455676 0.232958 0.119020 0.456115 0.194913 0.203129 0.447837 0.065389 0.227756 0.000000 0.000000 0.000000 
-246.798538 946.337830 1140.612061 15.143898 -0.472086 -0.141501 -0.305579 0.065459 -0.564127 -0.266490 -0.010173 0.117326 -0.277475 0.018886 -0.063270 -0.331212 0.011998 1.173259 0.000000 0.000000 0.000000 0.050647 0.214386 0.132964 -0.081345 0.365251 -0.456023 0.011725 -0.082394 0.381177 0.000000 0.000000 0.000000 0.689293 0.237408 0.162525 0.031989 0.124247 0.136006 0.116340 0.584569 0.427782 0.000000 0.000000 0.000000 -0.097499 0.523948 -0.530770 -0.114997 -0.423301 -0.201987 -0.110121 0.490314 0.054975 0.000000 0.000000 0.000000 0.457771 0.224628 0.120221 0.458276 0.177177 0.196567 0.449416 0.069788 0.229665 0.000000 0.000000 0.000000 
-246.723312 946.308594 1140.618042 15.136271 -0.454380 -0.137334 -0.302578 0.067107 -0.576325 -0.262494 -0.011740 0.122244 -0.273960 0.018906 -0.066199 -0.331906 0.017984 1.176894 0.000000 0.000000 0.000000 0.046273 0.217374 0.137689 -0.080513 0.365441 -0.443192 0.011238 -0.075093 0.384454 0.000000 0.000000 0.000000 0.684866 0.230186 0.154433 0.030392 0.117331 0.129210 0.113497 0.567897 0.420675 0.000000 0.000000 0.000000 -0.095451 0.514371 -0.531899 -0.112953 -0.437673 -0.203613 -0.107835 0.493513 0.056698 0.000000 0.000000 0.000000 0.460164 0.218444 0.121719 0.460759 0.158201 0.189328 0.451234 0.074958 0.231891 0.000000 0.000000 0.000000 
-246.650803 946.277710 1140.621948 15.127190 -0.438249 -0.132569 -0.299458 0.067585 -0.586284 -0.258570 -0.012786 0.125995 -0.270425 0.020918 -0.069049 -0.332022 0.024291 1.178591 0.000000 0.000000 0.000000 0.041538 0.220077 0.141480 -0.080367 0.366036 -0.434483 0.011259 -0.073922 0.392373 0.000000 0.000000 0.000000 0.680125 0.222768 0.146346 0.028359 0.110877 0.119306 0.112625 0.558840 0.425077 0.000000 0.000000 0.000000 -0.093170 0.508029 -0.533632 -0.110774 -0.455546 -0.205787 -0.105360 0.497045 0.058577 0.000000 0.000000 0.000000 0.462314 0.215402 0.123164 0.463032 0.136157 0.181297 0.452824 0.081584 0.234396 0.000000 0.000000 0.000000 
-246.580551 946.243225 1140.625000 15.117818 -0.423545 -0.127581 -0.297360 0.068856 -0.596097 -0.255702 -0.015100 0.129512 -0.267874 0.022454 -0.071137 -0.331439 0.033974 1.178552 0.000000 0.000000 0.000000 0.038517 0.223610 0.144201 -0.080615 0.368101 -0.427711 0.011565 -0.076252 0.402514 0.000000 0.000000 0.000000 0.676943 0.217044 0.137191 0.026417 0.105520 0.109828 0.112706 0.553807 0.434518 0.000000 0.000000 0.000000 -0.091148 0.503943 -0.535525 -0.108916 -0.475120 -0.207989 -0.103146 0.500481 0.060318 0.000000 0.000000 0.000000 0.464284 0.214264 0.124693 0.465139 0.113178 0.173121 0.454266 0.088824 0.236995 0.000000 0.000000 0.000000 
-246.517365 946.208191 1140.626953 15.107823 -0.411714 -0.123034 -0.295890 0.072516 -0.603649 -0.253635 -0.017848 0.132680 -0.266087 0.024374 -0.073124 -0.330446 0.042032 1.176752 0.000000 0.000000 0.000000 0.033497 0.226098 0.147484 -0.080926 0.369479 -0.424363 0.011913 -0.079695 0.409761 0.000000 0.000000 0.000000 0.672783 0.212207 0.129382 0.024878 0.101311 0.101604 0.112604 0.549966 0.439823 0.000000 0.000000 0.000000 -0.088717 0.500959 -0.536778 -0.106616 -0.491481 -0.210593 -0.100629 0.503709 0.062151 0.000000 0.000000 0.000000 0.466561 0.214135 0.126242 0.467545 0.093943 0.165761 0.456008 0.094714 0.239377 0.000000 0.000000 0.000000 
